# Blender v2.72 (sub 0) OBJ File: 'HalfSphere.blend'
# www.blender.org
mtllib HalfSphere.mtl
v -3.669600 -0.120320 -19.461596
v -7.421463 -0.120320 -18.323481
v -10.879198 -0.120320 -16.475283
v -13.909929 -0.120320 -13.988027
v -16.397186 -0.120320 -10.957294
v -18.245384 -0.120321 -7.499559
v -19.383499 -0.120321 -3.747698
v -19.767794 -0.120321 0.154108
v -3.594628 -0.881526 -19.461596
v -7.274400 -1.613478 -18.323481
v -10.665696 -2.288049 -16.475283
v -13.638191 -2.879315 -13.988027
v -16.077658 -3.364555 -10.957294
v -17.890341 -3.725121 -7.499559
v -19.006588 -3.947156 -3.747698
v -19.383499 -4.022129 0.154108
v -3.372593 -1.613479 -19.461596
v -6.838862 -3.049254 -18.323481
v -10.033392 -4.372473 -16.475283
v -12.833422 -5.532284 -13.988027
v -15.131348 -6.484116 -10.957295
v -16.838860 -7.191391 -7.499559
v -17.890341 -7.626929 -3.747698
v -18.245382 -7.773992 0.154107
v -3.012027 -2.288051 -19.461596
v -6.131587 -4.372474 -18.323481
v -9.006588 -6.293489 -16.475283
v -11.526548 -7.977273 -13.988028
v -13.594626 -9.359118 -10.957295
v -15.131346 -10.385922 -7.499560
v -16.077654 -11.018226 -3.747698
v -16.397182 -11.231730 0.154107
v -2.526786 -2.879318 -19.461596
v -5.179753 -5.532286 -18.323481
v -7.624741 -7.977273 -16.475283
v -9.767792 -10.120324 -13.988028
v -11.526546 -11.879081 -10.957295
v -12.833420 -13.185953 -7.499560
v -13.638187 -13.990723 -3.747699
v -13.909925 -14.262462 0.154107
v -1.935519 -3.364559 -19.461596
v -4.019942 -6.484118 -18.323481
v -5.940957 -9.359120 -16.475283
v -7.624740 -11.879081 -13.988028
v -9.006585 -13.947159 -10.957295
v -10.033390 -15.483879 -7.499560
v -10.665689 -16.430187 -3.747699
v -10.879194 -16.749718 0.154107
v -1.260947 -3.725125 -19.461596
v -2.696723 -7.191393 -18.323481
v -4.019941 -10.385924 -16.475283
v -5.179750 -13.185954 -13.988028
v -6.131582 -15.483880 -10.957295
v -6.838858 -17.191393 -7.499560
v -7.274393 -18.242872 -3.747699
v -7.421457 -18.597916 0.154107
v -0.528993 -3.947160 -19.461596
v -1.260945 -7.626931 -18.323481
v -1.935516 -11.018228 -16.475283
v -2.526783 -13.990723 -13.988028
v -3.012022 -16.430189 -10.957295
v -3.372588 -18.242872 -7.499560
v -3.594621 -19.359118 -3.747699
v -3.669594 -19.736031 0.154106
v 0.232212 -4.022132 -19.461596
v 0.232212 -7.773994 -18.323481
v 0.232212 -11.231730 -16.475283
v 0.232212 -14.262460 -13.988028
v 0.232213 -16.749716 -10.957295
v 0.232211 -18.597916 -7.499560
v 0.232214 -19.736027 -3.747699
v 0.232214 -20.120325 0.154106
v 0.993418 -3.947160 -19.461596
v 1.725370 -7.626931 -18.323481
v 2.399941 -11.018228 -16.475283
v 2.991207 -13.990722 -13.988028
v 3.476446 -16.430187 -10.957295
v 3.837011 -18.242872 -7.499560
v 4.059048 -19.359116 -3.747699
v 4.134021 -19.736031 0.154106
v 1.725371 -3.725124 -19.461596
v 3.161146 -7.191392 -18.323481
v 4.484364 -10.385923 -16.475283
v 5.644174 -13.185953 -13.988028
v 6.596007 -15.483876 -10.957295
v 7.303280 -17.191393 -7.499560
v 7.738819 -18.242868 -3.747699
v 7.885883 -18.597916 0.154107
v 2.399943 -3.364558 -19.461596
v 4.484365 -6.484117 -18.323481
v 6.405380 -9.359118 -16.475283
v 8.089163 -11.879079 -13.988028
v 9.471010 -13.947156 -10.957295
v 10.497812 -15.483878 -7.499560
v 11.130115 -16.430182 -3.747699
v 11.343619 -16.749716 0.154107
v 2.991210 -2.879317 -19.461596
v 5.644176 -5.532284 -18.323481
v 8.089164 -7.977272 -16.475283
v 10.232214 -10.120321 -13.988028
v 11.990971 -11.879076 -10.957295
v 13.297842 -13.185953 -7.499560
v 14.102610 -13.990718 -3.747699
v 14.374352 -14.262458 0.154107
v 3.476450 -2.288050 -19.461596
v 6.596008 -4.372473 -18.323481
v 9.471010 -6.293487 -16.475283
v 11.990971 -7.977271 -13.988028
v 14.059048 -9.359115 -10.957295
v 15.595768 -10.385922 -7.499560
v 16.542074 -11.018221 -3.747698
v 16.861609 -11.231726 0.154107
v 3.837016 -1.613478 -19.461596
v 7.303282 -3.049254 -18.323481
v 10.497814 -4.372472 -16.475283
v 13.297842 -5.532281 -13.988027
v 15.595767 -6.484112 -10.957295
v 17.303280 -7.191391 -7.499559
v 18.354759 -7.626924 -3.747698
v 18.709806 -7.773989 0.154107
v 4.059051 -0.881525 -19.461596
v 7.738820 -1.613478 -18.323481
v 11.130117 -2.288049 -16.475283
v 14.102612 -2.879313 -13.988027
v 16.542074 -3.364552 -10.957294
v 18.354761 -3.725121 -7.499559
v 19.471004 -3.947153 -3.747698
v 19.847921 -4.022126 0.154108
v 4.134023 -0.120320 -19.461596
v 7.885883 -0.120321 -18.323481
v 11.343619 -0.120320 -16.475283
v 14.374348 -0.120320 -13.988027
v 16.861601 -0.120319 -10.957294
v 18.709803 -0.120322 -7.499559
v 19.847914 -0.120319 -3.747698
v 20.232214 -0.120319 0.154108
v 4.059051 0.640886 -19.461596
v 7.738819 1.372836 -18.323481
v 11.130117 2.047407 -16.475283
v 14.102610 2.638674 -13.988027
v 16.542070 3.123914 -10.957294
v 18.354761 3.484477 -7.499558
v 19.471003 3.706514 -3.747697
v 19.847918 3.781487 0.154108
v 3.837015 1.372838 -19.461596
v 7.303281 2.808612 -18.323481
v 10.497814 4.131831 -16.475283
v 13.297841 5.291641 -13.988027
v 15.595761 6.243473 -10.957294
v 17.303280 6.950746 -7.499558
v 18.354755 7.386284 -3.747697
v 18.709803 7.533350 0.154108
v 3.476449 2.047410 -19.461596
v 6.596005 4.131831 -18.323481
v 9.471010 6.052846 -16.475283
v 11.990968 7.736629 -13.988026
v 14.059040 9.118474 -10.957294
v 15.595767 10.145278 -7.499558
v 16.542070 10.777580 -3.747697
v 16.861603 10.991086 0.154109
v 2.991208 2.638676 -19.461596
v 5.644173 5.291641 -18.323481
v 8.089164 7.736630 -16.475283
v 10.232211 9.879680 -13.988026
v 11.990962 11.638433 -10.957294
v 13.297841 12.945308 -7.499558
v 14.102604 13.750074 -3.747697
v 14.374346 14.021816 0.154109
v 2.399941 3.123916 -19.461596
v 4.484362 6.243473 -18.323481
v 6.405378 9.118475 -16.475283
v 8.089161 11.638435 -13.988026
v 9.471002 13.706510 -10.957294
v 10.497812 15.243234 -7.499558
v 11.130108 16.189537 -3.747696
v 11.343614 16.509071 0.154109
v 1.725370 3.484482 -19.461596
v 3.161143 6.950747 -18.323481
v 4.484363 10.145279 -16.475283
v 5.644171 12.945309 -13.988026
v 6.595999 15.243229 -10.957294
v 7.303280 16.950747 -7.499557
v 7.738811 18.002222 -3.747696
v 7.885877 18.357269 0.154109
v 0.993417 3.706517 -19.461596
v 1.725368 7.386284 -18.323481
v 2.399939 10.777582 -16.475283
v 2.991204 13.750077 -13.988026
v 3.476441 16.189535 -10.957294
v 3.837011 18.002226 -7.499557
v 4.059041 19.118467 -3.747696
v 4.134015 19.495382 0.154109
v 0.232212 3.781489 -19.461596
v 0.232212 7.533348 -18.323481
v 0.232212 10.991083 -16.475283
v 0.232210 14.021813 -13.988026
v 0.232209 16.509064 -10.957294
v 0.232212 18.357267 -7.499557
v 0.232208 19.495375 -3.747696
v 0.232209 19.879675 0.154109
v -0.528993 3.706517 -19.461596
v -1.260945 7.386284 -18.323481
v -1.935516 10.777581 -16.475283
v -2.526784 13.750076 -13.988026
v -3.012023 16.189533 -10.957294
v -3.372587 18.002226 -7.499557
v -3.594625 19.118464 -3.747696
v -3.669597 19.495378 0.154109
v -1.260945 3.484482 -19.461596
v -2.696720 6.950747 -18.323481
v -4.019939 10.145277 -16.475283
v -5.179751 12.945306 -13.988026
v -6.131581 15.243225 -10.957294
v -6.838855 16.950745 -7.499557
v -7.274394 18.002216 -3.747696
v -7.421459 18.357264 0.154109
v -1.935517 3.123916 -19.461596
v -4.019938 6.243472 -18.323481
v -5.940954 9.118472 -16.475283
v -7.624739 11.638433 -13.988026
v -9.006581 13.706504 -10.957294
v -10.033386 15.243232 -7.499558
v -10.665688 16.189529 -3.747696
v -10.879192 16.509064 0.154109
v -2.526783 2.638675 -19.461596
v -5.179748 5.291639 -18.323481
v -7.624737 7.736627 -16.475283
v -9.767788 9.879677 -13.988026
v -11.526541 11.638426 -10.957294
v -12.833416 12.945308 -7.499558
v -13.638181 13.750066 -3.747697
v -13.909922 14.021806 0.154109
v -3.012023 2.047409 -19.461596
v -6.131579 4.131828 -18.323481
v -9.006581 6.052843 -16.475283
v -11.526543 7.736626 -13.988026
v -13.594617 9.118465 -10.957294
v -15.131340 10.145277 -7.499558
v -16.077642 10.777571 -3.747697
v -16.397177 10.991076 0.154109
v 0.232206 -0.120317 -19.845890
v -3.372590 1.372837 -19.461596
v -6.838854 2.808610 -18.323481
v -10.033384 4.131828 -16.475283
v -12.833417 5.291637 -13.988027
v -15.131335 6.243464 -10.957294
v -16.838852 6.950745 -7.499558
v -17.890326 7.386275 -3.747697
v -18.245371 7.533340 0.154108
v -3.594625 0.640885 -19.461596
v -7.274391 1.372835 -18.323481
v -10.665687 2.047405 -16.475283
v -13.638185 2.638670 -13.988027
v -16.077642 3.123906 -10.957294
v -17.890333 3.484477 -7.499558
v -19.006571 3.706506 -3.747697
v -19.383484 3.781478 0.154108
vt 0.401450 0.548180
vt 0.372720 0.597060
vt 0.412390 0.564231
vt 0.131061 0.691982
vt 0.104393 0.813336
vt 0.174261 0.758188
vt 0.255563 0.626774
vt 0.233263 0.711174
vt 0.284598 0.669762
vt 0.356176 0.572728
vt 0.330343 0.631930
vt 0.445248 0.524333
vt 0.450691 0.532313
vt 0.197633 0.657404
vt 0.308152 0.598457
vt 0.229817 0.815142
vt 0.278817 0.757176
vt 0.358794 0.660516
vt 0.393535 0.618027
vt 0.426248 0.577859
vt 0.171523 0.883413
vt 0.321342 0.706249
vt 0.457583 0.539075
vt 0.295901 0.860416
vt 0.332699 0.793578
vt 0.364492 0.734979
vt 0.392524 0.682655
vt 0.418298 0.634255
vt 0.442504 0.588511
vt 0.251807 0.939551
vt 0.465660 0.544359
vt 0.370189 0.891831
vt 0.393029 0.818897
vt 0.412537 0.754461
vt 0.429903 0.697869
vt 0.445741 0.645353
vt 0.460521 0.595777
vt 0.342574 0.979122
vt 0.474599 0.547999
vt 0.449568 0.907268
vt 0.457418 0.831467
vt 0.463471 0.764897
vt 0.469569 0.705628
vt 0.479591 0.599536
vt 0.440750 0.999901
vt 0.474784 0.650836
vt 0.393819 0.530310
vt 0.441463 0.515442
vt 0.484078 0.549825
vt 0.292428 0.561652
vt 0.344686 0.545658
vt 0.173215 0.598046
vt 0.235344 0.579001
vt 0.017555 0.643728
vt 0.052565 0.732321
vt 0.101514 0.619240
vt 0.530206 0.907959
vt 0.522814 0.831338
vt 0.515610 0.764920
vt 0.509974 0.705429
vt 0.504373 0.650903
vt 0.499044 0.599358
vt 0.389920 0.511269
vt 0.493740 0.549766
vt 0.284279 0.522407
vt 0.338660 0.516858
vt 0.160315 0.535407
vt 0.000099 0.551046
vt 0.086154 0.542655
vt 0.608882 0.891436
vt 0.586822 0.818242
vt 0.566743 0.754633
vt 0.549583 0.697405
vt 0.533373 0.644817
vt 0.518062 0.595377
vt 0.225285 0.528252
vt 0.634986 0.977196
vt 0.439519 0.505976
vt 0.389786 0.491836
vt 0.503204 0.547822
vt 0.283912 0.482302
vt 0.338349 0.487389
vt 0.159572 0.471441
vt 0.000158 0.457932
vt 0.084903 0.464693
vt 0.682905 0.860303
vt 0.646994 0.792887
vt 0.614866 0.734489
vt 0.586810 0.681703
vt 0.535999 0.587899
vt 0.224952 0.476689
vt 0.725331 0.940002
vt 0.560775 0.633498
vt 0.393434 0.472753
vt 0.441247 0.486826
vt 0.512109 0.544070
vt 0.291302 0.442841
vt 0.343770 0.458372
vt 0.171100 0.408372
vt 0.014557 0.365324
vt 0.749511 0.815218
vt 0.701026 0.756223
vt 0.658096 0.705315
vt 0.620243 0.659091
vt 0.552153 0.577025
vt 0.234457 0.425980
vt 0.098999 0.387687
vt 0.807295 0.885564
vt 0.585257 0.616769
vt 0.400599 0.454672
vt 0.444854 0.477863
vt 0.520117 0.538651
vt 0.306202 0.405491
vt 0.354735 0.430948
vt 0.194573 0.348318
vt 0.046912 0.275015
vt 0.805581 0.757596
vt 0.746804 0.709629
vt 0.694783 0.668232
vt 0.648617 0.630339
vt 0.605978 0.595641
vt 0.565767 0.563105
vt 0.253576 0.377906
vt 0.127350 0.313985
vt 0.877675 0.815285
vt 0.411276 0.438388
vt 0.450146 0.469769
vt 0.526916 0.531768
vt 0.328108 0.371659
vt 0.370821 0.406155
vt 0.229407 0.293627
vt 0.097412 0.190694
vt 0.850196 0.691053
vt 0.782601 0.655226
vt 0.723501 0.624733
vt 0.670864 0.596569
vt 0.622132 0.570875
vt 0.576387 0.546827
vt 0.281738 0.334291
vt 0.170118 0.246745
vt 0.424922 0.424490
vt 0.456919 0.462862
vt 0.532240 0.523690
vt 0.356247 0.342649
vt 0.391475 0.384941
vt 0.274374 0.246447
vt 0.166179 0.120744
vt 0.224523 0.187865
vt 0.879617 0.616870
vt 0.806954 0.594928
vt 0.743167 0.576513
vt 0.686016 0.559128
vt 0.583770 0.528853
vt 0.317968 0.296893
vt 0.964686 0.642166
vt 0.633440 0.543538
vt 0.441020 0.413518
vt 0.464913 0.457408
vt 0.535889 0.514732
vt 0.389595 0.319579
vt 0.415917 0.368157
vt 0.328036 0.209056
vt 0.244955 0.062584
vt 0.894584 0.538668
vt 0.819174 0.531119
vt 0.753120 0.525408
vt 0.693476 0.519604
vt 0.587506 0.509751
vt 0.360944 0.267329
vt 0.290794 0.141705
vt 0.983296 0.547388
vt 0.639218 0.514455
vt 0.458955 0.405902
vt 0.473822 0.453618
vt 0.537725 0.505228
vt 0.427045 0.304061
vt 0.443207 0.356509
vt 0.388371 0.182913
vt 0.336394 0.019617
vt 0.894316 0.459032
vt 0.818814 0.466197
vt 0.693749 0.479297
vt 0.587433 0.490242
vt 0.409097 0.246526
vt 0.365473 0.109706
vt 0.983296 0.450498
vt 0.752796 0.473392
vt 0.638958 0.484784
vt 0.478034 0.401936
vt 0.483302 0.451639
vt 0.537634 0.495542
vt 0.466625 0.295623
vt 0.472252 0.350405
vt 0.452886 0.169169
vt 0.436054 0.000099
vt 0.445102 0.092336
vt 0.878685 0.380862
vt 0.805916 0.402550
vt 0.742569 0.422473
vt 0.685549 0.439699
vt 0.632934 0.455751
vt 0.583415 0.471149
vt 0.460550 0.235814
vt 0.964527 0.355231
vt 0.497517 0.401777
vt 0.492989 0.451548
vt 0.535688 0.486055
vt 0.507176 0.295218
vt 0.501941 0.350094
vt 0.518744 0.168618
vt 0.536004 0.000764
vt 0.526491 0.091920
vt 0.848168 0.307071
vt 0.780880 0.342529
vt 0.722550 0.374428
vt 0.669845 0.402431
vt 0.621355 0.428418
vt 0.575756 0.453242
vt 0.513049 0.235452
vt 0.927596 0.265201
vt 0.516647 0.405433
vt 0.502511 0.453348
vt 0.531926 0.477131
vt 0.547021 0.302822
vt 0.531120 0.355608
vt 0.583267 0.181140
vt 0.633045 0.020820
vt 0.605965 0.107727
vt 0.803822 0.240465
vt 0.744590 0.288424
vt 0.693505 0.331136
vt 0.647184 0.368911
vt 0.564870 0.437086
vt 0.564530 0.245439
vt 0.873790 0.183837
vt 0.604660 0.403876
vt 0.534683 0.412763
vt 0.526465 0.469133
vt 0.584582 0.318101
vt 0.558659 0.366733
vt 0.643912 0.206077
vt 0.723805 0.059194
vt 0.680467 0.138758
vt 0.747235 0.183615
vt 0.698366 0.242333
vt 0.656518 0.294284
vt 0.618402 0.340429
vt 0.583501 0.383036
vt 0.550921 0.423487
vt 0.612975 0.265328
vt 0.805032 0.114265
vt 0.511486 0.457001
vt 0.519572 0.462329
vt 0.928620 0.731165
vt 0.439458 0.496318
vt 0.539915 0.996252
vt 0.488552 0.500734
vn 0.470900 0.046400 0.881000
vn 0.990400 0.097600 0.097500
vn 0.878600 0.086500 0.469600
vn 0.633200 0.062400 0.771500
vn 0.290200 0.028600 0.956500
vn 0.952700 0.093800 0.289000
vn 0.770800 0.075900 0.632600
vn 0.916100 0.277900 0.289000
vn 0.741200 0.224800 0.632600
vn 0.452800 0.137400 0.881000
vn 0.952400 0.288900 0.097500
vn 0.844800 0.256300 0.469600
vn 0.608800 0.184700 0.771500
vn 0.279000 0.084600 0.956500
vn 0.844300 0.451300 0.289000
vn 0.683100 0.365100 0.632600
vn 0.417300 0.223000 0.881000
vn 0.877700 0.469100 0.097500
vn 0.778600 0.416200 0.469600
vn 0.561100 0.299900 0.771500
vn 0.257100 0.137400 0.956500
vn 0.740000 0.607300 0.289000
vn 0.598700 0.491300 0.632600
vn 0.365800 0.300200 0.881000
vn 0.769300 0.631400 0.097600
vn 0.682500 0.560100 0.469600
vn 0.491800 0.403600 0.771500
vn 0.225400 0.185000 0.956500
vn 0.607300 0.740000 0.289000
vn 0.491300 0.598700 0.632600
vn 0.300200 0.365800 0.881000
vn 0.631400 0.769300 0.097600
vn 0.560100 0.682500 0.469600
vn 0.403600 0.491800 0.771500
vn 0.290200 -0.028600 0.956500
vn 0.185000 0.225400 0.956500
vn 0.633200 -0.062400 0.771500
vn 0.878600 -0.086500 0.469600
vn 0.990400 -0.097600 0.097600
vn 0.451300 0.844300 0.289000
vn 0.365100 0.683100 0.632600
vn 0.223100 0.417300 0.881000
vn 0.470900 -0.046400 0.881000
vn 0.770800 -0.075900 0.632600
vn 0.952700 -0.093800 0.289000
vn 0.469100 0.877700 0.097600
vn 0.416200 0.778600 0.469600
vn 0.299900 0.561100 0.771500
vn 0.279000 -0.084600 0.956500
vn 0.137400 0.257100 0.956500
vn 0.608800 -0.184700 0.771500
vn 0.844800 -0.256300 0.469600
vn 0.952400 -0.288900 0.097600
vn 0.277900 0.916100 0.289000
vn 0.224800 0.741200 0.632600
vn 0.137400 0.452800 0.881000
vn 0.452800 -0.137400 0.881000
vn 0.741200 -0.224800 0.632600
vn 0.916100 -0.277900 0.289000
vn 0.288900 0.952400 0.097600
vn 0.256300 0.844800 0.469600
vn 0.184700 0.608800 0.771500
vn 0.257100 -0.137400 0.956500
vn 0.084600 0.279000 0.956500
vn 0.561100 -0.299900 0.771500
vn 0.778600 -0.416200 0.469600
vn 0.877700 -0.469100 0.097600
vn 0.093800 0.952700 0.289000
vn 0.075900 0.770800 0.632600
vn 0.046400 0.470900 0.881000
vn 0.417300 -0.223000 0.881000
vn 0.683100 -0.365100 0.632600
vn 0.844300 -0.451300 0.289000
vn 0.097500 0.990400 0.097600
vn 0.086500 0.878600 0.469600
vn 0.062400 0.633200 0.771500
vn 0.225400 -0.185000 0.956500
vn 0.028600 0.290200 0.956500
vn 0.491800 -0.403600 0.771500
vn 0.682500 -0.560100 0.469600
vn 0.769300 -0.631400 0.097600
vn -0.093800 0.952700 0.289000
vn -0.075900 0.770800 0.632600
vn -0.046400 0.470900 0.881000
vn 0.365800 -0.300200 0.881000
vn 0.598700 -0.491300 0.632600
vn 0.740000 -0.607300 0.289000
vn -0.097500 0.990400 0.097600
vn -0.086500 0.878600 0.469600
vn -0.062400 0.633200 0.771500
vn 0.185000 -0.225400 0.956500
vn -0.028600 0.290200 0.956500
vn 0.403600 -0.491800 0.771500
vn 0.560100 -0.682500 0.469600
vn 0.631400 -0.769300 0.097600
vn -0.277900 0.916100 0.289000
vn -0.224800 0.741200 0.632600
vn -0.137400 0.452800 0.881000
vn 0.300200 -0.365800 0.881000
vn 0.491300 -0.598700 0.632600
vn 0.607300 -0.740000 0.289000
vn -0.288900 0.952400 0.097600
vn -0.256300 0.844800 0.469600
vn -0.184700 0.608800 0.771500
vn 0.137400 -0.257100 0.956500
vn -0.084600 0.279000 0.956500
vn 0.299900 -0.561100 0.771500
vn 0.416200 -0.778600 0.469600
vn 0.469100 -0.877700 0.097600
vn -0.451300 0.844300 0.289000
vn -0.365100 0.683100 0.632600
vn -0.223100 0.417300 0.881000
vn 0.223000 -0.417300 0.881000
vn 0.365100 -0.683100 0.632600
vn 0.451300 -0.844300 0.289000
vn -0.469100 0.877700 0.097600
vn -0.416200 0.778600 0.469600
vn -0.299900 0.561100 0.771500
vn 0.084600 -0.279000 0.956500
vn -0.137400 0.257100 0.956500
vn 0.184700 -0.608800 0.771500
vn 0.256300 -0.844800 0.469600
vn 0.288900 -0.952400 0.097600
vn -0.607300 0.740000 0.289000
vn -0.491300 0.598700 0.632600
vn -0.300200 0.365800 0.881000
vn 0.137400 -0.452800 0.881000
vn 0.224800 -0.741200 0.632600
vn 0.277900 -0.916100 0.289000
vn -0.631400 0.769300 0.097600
vn -0.560100 0.682500 0.469600
vn -0.403600 0.491800 0.771500
vn 0.028600 -0.290200 0.956500
vn -0.185000 0.225400 0.956500
vn 0.062400 -0.633200 0.771500
vn 0.086500 -0.878600 0.469600
vn 0.097600 -0.990400 0.097600
vn -0.740000 0.607300 0.289000
vn -0.598700 0.491300 0.632600
vn -0.365800 0.300200 0.881000
vn 0.046400 -0.470900 0.881000
vn 0.075900 -0.770800 0.632600
vn 0.093800 -0.952700 0.289000
vn -0.769300 0.631400 0.097600
vn -0.682500 0.560100 0.469600
vn -0.491800 0.403600 0.771500
vn -0.028600 -0.290200 0.956500
vn -0.225400 0.185000 0.956500
vn -0.062400 -0.633200 0.771500
vn -0.086500 -0.878600 0.469600
vn -0.097500 -0.990400 0.097600
vn -0.844300 0.451300 0.289000
vn -0.683100 0.365100 0.632600
vn -0.417300 0.223000 0.881000
vn -0.046400 -0.470900 0.881000
vn -0.075900 -0.770800 0.632600
vn -0.093800 -0.952700 0.289000
vn -0.877700 0.469100 0.097600
vn -0.778600 0.416200 0.469600
vn -0.561100 0.299900 0.771500
vn -0.084600 -0.279000 0.956500
vn -0.257100 0.137400 0.956500
vn -0.184700 -0.608800 0.771500
vn -0.256300 -0.844800 0.469600
vn -0.288900 -0.952400 0.097600
vn -0.916100 0.277900 0.289000
vn -0.741200 0.224800 0.632600
vn -0.452800 0.137400 0.881000
vn -0.137400 -0.452800 0.881000
vn -0.224800 -0.741200 0.632600
vn -0.277900 -0.916100 0.289000
vn -0.952400 0.288900 0.097600
vn -0.844800 0.256300 0.469600
vn -0.608800 0.184700 0.771500
vn -0.137400 -0.257100 0.956500
vn -0.279000 0.084600 0.956500
vn -0.299900 -0.561100 0.771500
vn -0.416200 -0.778600 0.469600
vn -0.469100 -0.877700 0.097600
vn -0.952700 0.093800 0.289000
vn -0.770800 0.075900 0.632600
vn -0.470900 0.046400 0.881000
vn -0.223000 -0.417300 0.881000
vn -0.365100 -0.683100 0.632600
vn -0.451300 -0.844300 0.289000
vn -0.990400 0.097600 0.097600
vn -0.878600 0.086500 0.469600
vn -0.633200 0.062400 0.771500
vn -0.185000 -0.225400 0.956500
vn -0.290200 0.028600 0.956500
vn -0.403600 -0.491800 0.771500
vn -0.560100 -0.682500 0.469600
vn -0.631400 -0.769300 0.097600
vn -0.952700 -0.093800 0.289000
vn -0.770800 -0.075900 0.632600
vn -0.470900 -0.046400 0.881000
vn -0.300200 -0.365800 0.881000
vn -0.491300 -0.598700 0.632600
vn -0.607300 -0.740000 0.289000
vn -0.990400 -0.097500 0.097600
vn -0.878600 -0.086500 0.469600
vn -0.633200 -0.062400 0.771500
vn -0.225400 -0.185000 0.956500
vn -0.290200 -0.028600 0.956500
vn -0.491800 -0.403600 0.771500
vn -0.682500 -0.560100 0.469600
vn -0.769300 -0.631400 0.097600
vn -0.916100 -0.277900 0.289000
vn -0.741200 -0.224800 0.632600
vn -0.452800 -0.137400 0.881000
vn -0.365800 -0.300200 0.881000
vn -0.598700 -0.491300 0.632600
vn -0.740000 -0.607300 0.289000
vn -0.952400 -0.288900 0.097600
vn -0.844800 -0.256300 0.469600
vn -0.608800 -0.184700 0.771500
vn -0.257100 -0.137400 0.956500
vn -0.279000 -0.084600 0.956500
vn -0.561100 -0.299900 0.771500
vn -0.778600 -0.416200 0.469600
vn -0.877700 -0.469100 0.097600
vn -0.844300 -0.451300 0.289000
vn -0.683100 -0.365100 0.632600
vn -0.417300 -0.223000 0.881000
vn -0.990400 -0.097600 0.097600
vn -0.990400 0.097500 0.097600
vn 0.097500 -0.990400 0.097600
vn 0.223100 -0.417300 0.881000
vn -0.223000 0.417300 0.881000
vn -0.097500 0.990400 0.097500
vn 0.098000 0.009700 0.995100
vn 0.469100 0.877700 0.097500
vn 0.223000 0.417300 0.881000
vn 0.094200 0.028600 0.995100
vn 0.086900 0.046400 0.995100
vn 0.076100 0.062500 0.995100
vn 0.062500 0.076100 0.995100
vn 0.046400 0.086900 0.995100
vn 0.028600 0.094200 0.995100
vn 0.009700 0.098000 0.995100
vn -0.009700 0.098000 0.995100
vn -0.028600 0.094200 0.995100
vn -0.046400 0.086900 0.995100
vn -0.062500 0.076100 0.995100
vn -0.076100 0.062500 0.995100
vn -0.086900 0.046400 0.995100
vn 0.769300 0.631400 0.097500
vn -0.094200 0.028600 0.995100
vn -0.098000 0.009700 0.995100
vn -0.098000 -0.009700 0.995100
vn -0.094200 -0.028600 0.995100
vn -0.086900 -0.046400 0.995100
vn -0.076100 -0.062500 0.995100
vn -0.062500 -0.076100 0.995100
vn -0.046400 -0.086900 0.995100
vn -0.028600 -0.094200 0.995100
vn -0.009600 -0.098000 0.995100
vn 0.009700 -0.098000 0.995100
vn 0.028600 -0.094200 0.995100
vn 0.046400 -0.086900 0.995100
vn 0.062500 -0.076100 0.995100
vn 0.076100 -0.062500 0.995100
vn 0.086900 -0.046400 0.995100
vn 0.094200 -0.028600 0.995100
vn 0.098000 -0.009700 0.995100
vn 0.990400 -0.097600 0.097500
vn 0.990400 0.097500 0.097500
usemtl Material1
s off
f 2/1/1 11/2/1 10/3/1
f 7/4/2 16/5/2 15/6/2
f 5/7/3 14/8/3 13/9/3
f 3/10/4 12/11/4 11/2/4
f 1/12/5 10/3/5 9/13/5
f 6/14/6 15/6/6 14/8/6
f 5/7/7 12/11/7 4/15/7
f 14/8/8 23/16/8 22/17/8
f 13/9/9 20/18/9 12/11/9
f 10/3/10 19/19/10 18/20/10
f 15/6/11 24/21/11 23/16/11
f 13/9/12 22/17/12 21/22/12
f 12/11/13 19/19/13 11/2/13
f 9/13/14 18/20/14 17/23/14
f 22/17/15 31/24/15 30/25/15
f 20/18/16 29/26/16 28/27/16
f 18/20/17 27/28/17 26/29/17
f 23/16/18 32/30/18 31/24/18
f 21/22/19 30/25/19 29/26/19
f 19/19/20 28/27/20 27/28/20
f 17/23/21 26/29/21 25/31/21
f 30/25/22 39/32/22 38/33/22
f 28/27/23 37/34/23 36/35/23
f 26/29/24 35/36/24 34/37/24
f 31/24/25 40/38/25 39/32/25
f 29/26/26 38/33/26 37/34/26
f 27/28/27 36/35/27 35/36/27
f 26/29/28 33/39/28 25/31/28
f 38/33/29 47/40/29 46/41/29
f 36/35/30 45/42/30 44/43/30
f 35/36/31 42/44/31 34/37/31
f 39/32/32 48/45/32 47/40/32
f 38/33/33 45/42/33 37/34/33
f 35/36/34 44/43/34 43/46/34
f 251/47/35 2/1/35 250/48/35
f 34/37/36 41/49/36 33/39/36
f 253/50/37 4/15/37 252/51/37
f 255/52/38 6/14/38 254/53/38
f 257/54/39 8/55/39 256/56/39
f 46/41/40 55/57/40 54/58/40
f 44/43/41 53/59/41 52/60/41
f 42/44/42 51/61/42 50/62/42
f 252/51/43 3/10/43 251/47/43
f 254/53/44 5/7/44 253/50/44
f 256/56/45 7/4/45 255/52/45
f 48/45/46 55/57/46 47/40/46
f 46/41/47 53/59/47 45/42/47
f 44/43/48 51/61/48 43/46/48
f 251/47/49 250/48/49 243/63/49
f 42/44/50 49/64/50 41/49/50
f 245/65/51 253/50/51 244/66/51
f 255/52/52 254/53/52 247/67/52
f 249/68/53 257/54/53 248/69/53
f 54/58/54 63/70/54 62/71/54
f 52/60/55 61/72/55 60/73/55
f 50/62/56 59/74/56 58/75/56
f 252/51/57 251/47/57 244/66/57
f 246/76/58 254/53/58 245/65/58
f 248/69/59 256/56/59 247/67/59
f 55/57/60 64/77/60 63/70/60
f 54/58/61 61/72/61 53/59/61
f 51/61/62 60/73/62 59/74/62
f 243/63/63 242/78/63 234/79/63
f 50/62/64 57/80/64 49/64/64
f 236/81/65 245/65/65 235/82/65
f 247/67/66 246/76/66 238/83/66
f 240/84/67 249/68/67 239/85/67
f 62/71/68 71/86/68 70/87/68
f 60/73/69 69/88/69 68/89/69
f 59/74/70 66/90/70 58/75/70
f 244/66/71 243/63/71 235/82/71
f 237/91/72 246/76/72 236/81/72
f 239/85/73 248/69/73 238/83/73
f 63/70/74 72/92/74 71/86/74
f 62/71/75 69/88/75 61/72/75
f 60/73/76 67/93/76 59/74/76
f 226/94/77 234/79/77 225/95/77
f 58/75/78 65/96/78 57/80/78
f 228/97/79 236/81/79 227/98/79
f 238/83/80 237/91/80 230/99/80
f 240/84/81 239/85/81 232/100/81
f 70/87/82 79/101/82 78/102/82
f 68/89/83 77/103/83 76/104/83
f 67/93/84 74/105/84 66/90/84
f 235/82/85 234/79/85 227/98/85
f 229/106/86 237/91/86 228/97/86
f 231/107/87 239/85/87 230/99/87
f 71/86/88 80/108/88 79/101/88
f 70/87/89 77/103/89 69/88/89
f 67/93/90 76/104/90 75/109/90
f 218/110/91 226/94/91 217/111/91
f 66/90/92 73/112/92 65/96/92
f 220/113/93 228/97/93 219/114/93
f 230/99/94 229/106/94 222/115/94
f 232/100/95 231/107/95 224/116/95
f 78/102/96 87/117/96 86/118/96
f 76/104/97 85/119/97 84/120/97
f 74/105/98 83/121/98 82/122/98
f 219/114/99 227/98/99 218/110/99
f 221/123/100 229/106/100 220/113/100
f 223/124/101 231/107/101 222/115/101
f 79/101/102 88/125/102 87/117/102
f 78/102/103 85/119/103 77/103/103
f 75/109/104 84/120/104 83/121/104
f 210/126/105 218/110/105 209/127/105
f 74/105/106 81/128/106 73/112/106
f 212/129/107 220/113/107 211/130/107
f 222/115/108 221/123/108 214/131/108
f 224/116/109 223/124/109 216/132/109
f 86/118/110 95/133/110 94/134/110
f 84/120/111 93/135/111 92/136/111
f 82/122/112 91/137/112 90/138/112
f 219/114/113 218/110/113 211/130/113
f 213/139/114 221/123/114 212/129/114
f 215/140/115 223/124/115 214/131/115
f 88/125/116 95/133/116 87/117/116
f 86/118/117 93/135/117 85/119/117
f 83/121/118 92/136/118 91/137/118
f 202/141/119 210/126/119 201/142/119
f 82/122/120 89/143/120 81/128/120
f 204/144/121 212/129/121 203/145/121
f 214/131/122 213/139/122 206/146/122
f 208/147/123 216/132/123 207/148/123
f 94/134/124 103/149/124 102/150/124
f 92/136/125 101/151/125 100/152/125
f 91/137/126 98/153/126 90/138/126
f 211/130/127 210/126/127 203/145/127
f 205/154/128 213/139/128 204/144/128
f 207/148/129 215/140/129 206/146/129
f 95/133/130 104/155/130 103/149/130
f 94/134/131 101/151/131 93/135/131
f 92/136/132 99/156/132 91/137/132
f 194/157/133 202/141/133 193/158/133
f 90/138/134 97/159/134 89/143/134
f 196/160/135 204/144/135 195/161/135
f 206/146/136 205/154/136 198/162/136
f 208/147/137 207/148/137 200/163/137
f 102/150/138 111/164/138 110/165/138
f 100/152/139 109/166/139 108/167/139
f 99/156/140 106/168/140 98/153/140
f 203/145/141 202/141/141 195/161/141
f 197/169/142 205/154/142 196/160/142
f 199/170/143 207/148/143 198/162/143
f 103/149/144 112/171/144 111/164/144
f 102/150/145 109/166/145 101/151/145
f 100/152/146 107/172/146 99/156/146
f 186/173/147 194/157/147 185/174/147
f 98/153/148 105/175/148 97/159/148
f 188/176/149 196/160/149 187/177/149
f 198/162/150 197/169/150 190/178/150
f 200/163/151 199/170/151 192/179/151
f 110/165/152 119/180/152 118/181/152
f 109/166/153 116/182/153 108/167/153
f 107/172/154 114/183/154 106/168/154
f 195/161/155 194/157/155 187/177/155
f 197/169/156 196/160/156 189/184/156
f 191/185/157 199/170/157 190/178/157
f 111/164/158 120/186/158 119/180/158
f 110/165/159 117/187/159 109/166/159
f 107/172/160 116/182/160 115/188/160
f 178/189/161 186/173/161 177/190/161
f 105/175/162 114/183/162 113/191/162
f 180/192/163 188/176/163 179/193/163
f 190/178/164 189/184/164 182/194/164
f 184/195/165 192/179/165 183/196/165
f 118/181/166 127/197/166 126/198/166
f 116/182/167 125/199/167 124/200/167
f 114/183/168 123/201/168 122/202/168
f 187/177/169 186/173/169 179/193/169
f 181/203/170 189/184/170 180/192/170
f 183/196/171 191/185/171 182/194/171
f 119/180/172 128/204/172 127/197/172
f 118/181/173 125/199/173 117/187/173
f 115/188/174 124/200/174 123/201/174
f 170/205/175 178/189/175 169/206/175
f 114/183/176 121/207/176 113/191/176
f 172/208/177 180/192/177 171/209/177
f 182/194/178 181/203/178 174/210/178
f 176/211/179 184/195/179 175/212/179
f 126/198/180 135/213/180 134/214/180
f 124/200/181 133/215/181 132/216/181
f 122/202/182 131/217/182 130/218/182
f 179/193/183 178/189/183 171/209/183
f 173/219/184 181/203/184 172/208/184
f 175/212/185 183/196/185 174/210/185
f 127/197/186 136/220/186 135/213/186
f 126/198/187 133/215/187 125/199/187
f 123/201/188 132/216/188 131/217/188
f 162/221/189 170/205/189 161/222/189
f 122/202/190 129/223/190 121/207/190
f 164/224/191 172/208/191 163/225/191
f 174/210/192 173/219/192 166/226/192
f 168/227/193 176/211/193 167/228/193
f 134/214/194 143/229/194 142/230/194
f 132/216/195 141/231/195 140/232/195
f 131/217/196 138/233/196 130/218/196
f 171/209/197 170/205/197 163/225/197
f 165/234/198 173/219/198 164/224/198
f 167/228/199 175/212/199 166/226/199
f 135/213/200 144/235/200 143/229/200
f 134/214/201 141/231/201 133/215/201
f 131/217/202 140/232/202 139/236/202
f 162/221/203 161/222/203 154/237/203
f 129/223/204 138/233/204 137/238/204
f 156/239/205 164/224/205 155/240/205
f 166/226/206 165/234/206 158/241/206
f 160/242/207 168/227/207 159/243/207
f 142/230/208 151/244/208 150/245/208
f 140/232/209 149/246/209 148/247/209
f 138/233/210 147/248/210 146/249/210
f 163/225/211 162/221/211 155/240/211
f 157/250/212 165/234/212 156/239/212
f 159/243/213 167/228/213 158/241/213
f 143/229/214 152/251/214 151/244/214
f 142/230/215 149/246/215 141/231/215
f 139/236/216 148/247/216 147/248/216
f 154/237/217 153/252/217 146/249/217
f 138/233/218 145/253/218 137/238/218
f 148/247/219 156/239/219 147/248/219
f 158/241/220 157/250/220 150/245/220
f 152/251/221 160/242/221 151/244/221
f 150/245/222 159/243/222 158/241/222
f 148/247/223 157/250/223 156/239/223
f 147/248/224 154/237/224 146/249/224
f 155/240/224 154/237/224 147/248/224
f 149/246/223 157/250/223 148/247/223
f 151/244/222 159/243/222 150/245/222
f 151/244/221 160/242/221 159/243/221
f 150/245/220 157/250/220 149/246/220
f 147/248/219 156/239/219 155/240/219
f 146/249/218 145/253/218 138/233/218
f 146/249/217 153/252/217 145/253/217
f 140/232/216 148/247/216 139/236/216
f 150/245/215 149/246/215 142/230/215
f 144/235/214 152/251/214 143/229/214
f 158/241/213 167/228/213 166/226/213
f 156/239/212 165/234/212 164/224/212
f 155/240/211 162/221/211 154/237/211
f 139/236/210 147/248/210 138/233/210
f 141/231/209 149/246/209 140/232/209
f 143/229/208 151/244/208 142/230/208
f 159/243/207 168/227/207 167/228/207
f 158/241/206 165/234/206 157/250/206
f 155/240/205 164/224/205 163/225/205
f 130/218/204 138/233/204 129/223/204
f 154/237/203 161/222/203 153/252/203
f 132/216/202 140/232/202 131/217/202
f 142/230/201 141/231/201 134/214/201
f 136/220/225 144/235/225 135/213/225
f 166/226/199 175/212/199 174/210/199
f 164/224/198 173/219/198 172/208/198
f 163/225/197 170/205/197 162/221/197
f 139/236/196 138/233/196 131/217/196
f 133/215/195 141/231/195 132/216/195
f 135/213/194 143/229/194 134/214/194
f 167/228/193 176/211/193 175/212/193
f 166/226/192 173/219/192 165/234/192
f 163/225/191 172/208/191 171/209/191
f 130/218/190 129/223/190 122/202/190
f 161/222/189 170/205/189 169/206/189
f 124/200/188 132/216/188 123/201/188
f 134/214/187 133/215/187 126/198/187
f 128/204/226 136/220/226 127/197/226
f 174/210/185 183/196/185 182/194/185
f 172/208/184 181/203/184 180/192/184
f 171/209/183 178/189/183 170/205/183
f 123/201/182 131/217/182 122/202/182
f 125/199/181 133/215/181 124/200/181
f 127/197/180 135/213/180 126/198/180
f 175/212/179 184/195/179 183/196/179
f 174/210/178 181/203/178 173/219/178
f 171/209/177 180/192/177 179/193/177
f 122/202/176 121/207/176 114/183/176
f 169/206/175 178/189/175 177/190/175
f 116/182/174 124/200/174 115/188/174
f 126/198/173 125/199/173 118/181/173
f 120/186/172 128/204/172 119/180/172
f 182/194/171 191/185/171 190/178/171
f 180/192/170 189/184/170 188/176/170
f 179/193/169 186/173/169 178/189/169
f 115/188/168 123/201/168 114/183/168
f 117/187/167 125/199/167 116/182/167
f 119/180/166 127/197/166 118/181/166
f 183/196/165 192/179/165 191/185/165
f 182/194/164 189/184/164 181/203/164
f 179/193/163 188/176/163 187/177/163
f 106/168/162 114/183/162 105/175/162
f 177/190/161 186/173/161 185/174/161
f 108/167/160 116/182/160 107/172/160
f 118/181/159 117/187/159 110/165/159
f 112/171/158 120/186/158 111/164/158
f 190/178/157 199/170/157 198/162/157
f 189/184/156 196/160/156 188/176/156
f 187/177/155 194/157/155 186/173/155
f 115/188/154 114/183/154 107/172/154
f 117/187/153 116/182/153 109/166/153
f 111/164/152 119/180/152 110/165/152
f 192/179/151 199/170/151 191/185/151
f 190/178/150 197/169/150 189/184/150
f 187/177/149 196/160/149 195/161/149
f 106/168/148 105/175/148 98/153/148
f 185/174/147 194/157/147 193/158/147
f 108/167/146 107/172/146 100/152/146
f 110/165/145 109/166/145 102/150/145
f 104/155/144 112/171/144 103/149/144
f 198/162/143 207/148/143 206/146/143
f 196/160/142 205/154/142 204/144/142
f 195/161/141 202/141/141 194/157/141
f 107/172/140 106/168/140 99/156/140
f 101/151/139 109/166/139 100/152/139
f 103/149/138 111/164/138 102/150/138
f 200/163/227 207/148/227 199/170/227
f 198/162/136 205/154/136 197/169/136
f 195/161/135 204/144/135 203/145/135
f 98/153/134 97/159/134 90/138/134
f 193/158/133 202/141/133 201/142/133
f 100/152/132 99/156/132 92/136/132
f 102/150/131 101/151/131 94/134/131
f 96/254/130 104/155/130 95/133/130
f 206/146/129 215/140/129 214/131/129
f 204/144/128 213/139/128 212/129/128
f 203/145/127 210/126/127 202/141/127
f 99/156/126 98/153/126 91/137/126
f 93/135/125 101/151/125 92/136/125
f 95/133/124 103/149/124 94/134/124
f 207/148/123 216/132/123 215/140/123
f 206/146/122 213/139/122 205/154/122
f 203/145/121 212/129/121 211/130/121
f 90/138/120 89/143/120 82/122/120
f 201/142/119 210/126/119 209/127/119
f 84/120/118 92/136/118 83/121/118
f 94/134/117 93/135/117 86/118/117
f 96/254/116 95/133/116 88/125/116
f 214/131/115 223/124/115 222/115/115
f 212/129/114 221/123/114 220/113/114
f 211/130/228 218/110/228 210/126/228
f 83/121/229 91/137/229 82/122/229
f 85/119/111 93/135/111 84/120/111
f 87/117/110 95/133/110 86/118/110
f 216/132/109 223/124/109 215/140/109
f 214/131/108 221/123/108 213/139/108
f 211/130/107 220/113/107 219/114/107
f 82/122/106 81/128/106 74/105/106
f 209/127/105 218/110/105 217/111/105
f 76/104/104 84/120/104 75/109/104
f 86/118/103 85/119/103 78/102/103
f 80/108/102 88/125/102 79/101/102
f 222/115/101 231/107/101 230/99/101
f 220/113/100 229/106/100 228/97/100
f 218/110/99 227/98/99 226/94/99
f 75/109/98 83/121/98 74/105/98
f 77/103/97 85/119/97 76/104/97
f 79/101/96 87/117/96 78/102/96
f 224/116/95 231/107/95 223/124/95
f 222/115/94 229/106/94 221/123/94
f 219/114/93 228/97/93 227/98/93
f 74/105/92 73/112/92 66/90/92
f 217/111/91 226/94/91 225/95/91
f 68/89/90 76/104/90 67/93/90
f 78/102/89 77/103/89 70/87/89
f 72/92/230 80/108/230 71/86/230
f 230/99/87 239/85/87 238/83/87
f 228/97/86 237/91/86 236/81/86
f 227/98/85 234/79/85 226/94/85
f 75/109/84 74/105/84 67/93/84
f 69/88/83 77/103/83 68/89/83
f 71/86/82 79/101/82 70/87/82
f 232/100/81 239/85/81 231/107/81
f 230/99/80 237/91/80 229/106/80
f 227/98/79 236/81/79 235/82/79
f 66/90/78 65/96/78 58/75/78
f 225/95/77 234/79/77 233/255/77
f 68/89/76 67/93/76 60/73/76
f 70/87/75 69/88/75 62/71/75
f 64/77/74 72/92/74 63/70/74
f 238/83/73 248/69/73 247/67/73
f 236/81/72 246/76/72 245/65/72
f 235/82/71 243/63/71 234/79/71
f 67/93/70 66/90/70 59/74/70
f 61/72/69 69/88/69 60/73/69
f 63/70/68 71/86/68 62/71/68
f 239/85/67 249/68/67 248/69/67
f 238/83/66 246/76/66 237/91/66
f 235/82/65 245/65/65 244/66/65
f 58/75/64 57/80/64 50/62/64
f 234/79/63 242/78/63 233/255/63
f 52/60/62 60/73/62 51/61/62
f 62/71/61 61/72/61 54/58/61
f 56/256/60 64/77/60 55/57/60
f 247/67/59 256/56/59 255/52/59
f 245/65/58 254/53/58 253/50/58
f 244/66/57 251/47/57 243/63/57
f 51/61/56 59/74/56 50/62/56
f 53/59/55 61/72/55 52/60/55
f 55/57/54 63/70/54 54/58/54
f 248/69/53 257/54/53 256/56/53
f 247/67/52 254/53/52 246/76/52
f 244/66/51 253/50/51 252/51/51
f 50/62/50 49/64/50 42/44/50
f 243/63/49 250/48/49 242/78/49
f 52/60/48 51/61/48 44/43/48
f 54/58/47 53/59/47 46/41/47
f 1/12/231 9/13/231 241/257/231
f 56/256/232 55/57/232 48/45/232
f 43/46/233 51/61/233 42/44/233
f 9/13/234 17/23/234 241/257/234
f 45/42/41 53/59/41 44/43/41
f 17/23/235 25/31/235 241/257/235
f 47/40/40 55/57/40 46/41/40
f 25/31/236 33/39/236 241/257/236
f 42/44/36 41/49/36 34/37/36
f 33/39/237 41/49/237 241/257/237
f 36/35/34 44/43/34 35/36/34
f 41/49/238 49/64/238 241/257/238
f 46/41/33 45/42/33 38/33/33
f 49/64/239 57/80/239 241/257/239
f 40/38/32 48/45/32 39/32/32
f 57/80/240 65/96/240 241/257/240
f 43/46/31 42/44/31 35/36/31
f 65/96/241 73/112/241 241/257/241
f 37/34/30 45/42/30 36/35/30
f 73/112/242 81/128/242 241/257/242
f 39/32/29 47/40/29 38/33/29
f 81/128/243 89/143/243 241/257/243
f 34/37/28 33/39/28 26/29/28
f 89/143/244 97/159/244 241/257/244
f 28/27/27 36/35/27 27/28/27
f 97/159/245 105/175/245 241/257/245
f 30/25/26 38/33/26 29/26/26
f 105/175/246 113/191/246 241/257/246
f 32/30/247 40/38/247 31/24/247
f 113/191/248 121/207/248 241/257/248
f 27/28/24 35/36/24 26/29/24
f 121/207/249 129/223/249 241/257/249
f 29/26/23 37/34/23 28/27/23
f 129/223/250 137/238/250 241/257/250
f 31/24/22 39/32/22 30/25/22
f 137/238/251 145/253/251 241/257/251
f 18/20/21 26/29/21 17/23/21
f 145/253/252 153/252/252 241/257/252
f 20/18/20 28/27/20 19/19/20
f 153/252/253 161/222/253 241/257/253
f 22/17/19 30/25/19 21/22/19
f 161/222/254 169/206/254 241/257/254
f 24/21/18 32/30/18 23/16/18
f 169/206/255 177/190/255 241/257/255
f 19/19/17 27/28/17 18/20/17
f 177/190/256 185/174/256 241/257/256
f 21/22/16 29/26/16 20/18/16
f 185/174/257 193/158/257 241/257/257
f 23/16/15 31/24/15 22/17/15
f 193/158/258 201/142/258 241/257/258
f 10/3/14 18/20/14 9/13/14
f 201/142/259 209/127/259 241/257/259
f 20/18/13 19/19/13 12/11/13
f 209/127/260 217/111/260 241/257/260
f 14/8/12 22/17/12 13/9/12
f 217/111/261 225/95/261 241/257/261
f 16/5/11 24/21/11 15/6/11
f 225/95/262 233/255/262 241/257/262
f 11/2/10 19/19/10 10/3/10
f 233/255/263 242/78/263 241/257/263
f 21/22/9 20/18/9 13/9/9
f 242/78/264 250/48/264 241/257/264
f 15/6/8 23/16/8 14/8/8
f 255/52/45 7/4/45 6/14/45
f 253/50/44 5/7/44 4/15/44
f 13/9/7 12/11/7 5/7/7
f 251/47/43 3/10/43 2/1/43
f 7/4/6 15/6/6 6/14/6
f 250/48/265 1/12/265 241/257/265
f 2/1/5 10/3/5 1/12/5
f 4/15/4 12/11/4 3/10/4
f 256/56/266 8/55/266 7/4/266
f 254/53/38 6/14/38 5/7/38
f 252/51/37 4/15/37 3/10/37
f 6/14/3 14/8/3 5/7/3
f 250/48/35 2/1/35 1/12/35
f 8/55/267 16/5/267 7/4/267
f 3/10/1 11/2/1 2/1/1
